<mxfile host="65bd71144e">
    <diagram id="7tKAH1gKp14RZwTokxEx" name="Page-1">
        <mxGraphModel dx="58" dy="538" grid="1" gridSize="10" guides="1" tooltips="1" connect="1" arrows="1" fold="1" page="1" pageScale="1" pageWidth="827" pageHeight="1169" math="0" shadow="0">
            <root>
                <mxCell id="0"/>
                <mxCell id="1" parent="0"/>
                <mxCell id="2" value="" style="rounded=0;whiteSpace=wrap;html=1;strokeColor=#B3B3B3;strokeWidth=1;fontSize=16;fontColor=#000000;fillColor=none;align=left;labelBackgroundColor=none;" vertex="1" parent="1">
                    <mxGeometry x="82.03" y="1481.25" width="130" height="30" as="geometry"/>
                </mxCell>
                <mxCell id="3" value="" style="rounded=0;whiteSpace=wrap;html=1;strokeColor=#B3B3B3;strokeWidth=1;fontSize=16;fontColor=#000000;fillColor=none;align=left;labelBackgroundColor=none;" vertex="1" parent="1">
                    <mxGeometry x="32.03" y="1201.25" width="210" height="38.75" as="geometry"/>
                </mxCell>
                <mxCell id="4" value="" style="rounded=0;whiteSpace=wrap;html=1;strokeColor=#B3B3B3;strokeWidth=1;fontSize=16;fontColor=#000000;fillColor=none;align=left;labelBackgroundColor=none;" vertex="1" parent="1">
                    <mxGeometry x="69.53" y="1730" width="77.5" height="30" as="geometry"/>
                </mxCell>
                <mxCell id="5" value="" style="rounded=1;whiteSpace=wrap;html=1;arcSize=0;" vertex="1" parent="1">
                    <mxGeometry x="10" y="10" width="590" height="930" as="geometry"/>
                </mxCell>
                <mxCell id="6" value="" style="rounded=1;whiteSpace=wrap;html=1;arcSize=0;fillColor=#D4E1F5;strokeColor=#36393d;" vertex="1" parent="1">
                    <mxGeometry x="20" y="50" width="570" height="880" as="geometry"/>
                </mxCell>
                <mxCell id="7" value="×" style="rounded=1;whiteSpace=wrap;html=1;arcSize=1;fillColor=#f8cecc;strokeColor=#b85450;" vertex="1" parent="1">
                    <mxGeometry x="570" y="20" width="20" height="20" as="geometry"/>
                </mxCell>
                <mxCell id="8" value="□" style="rounded=1;whiteSpace=wrap;html=1;arcSize=1;fillColor=#d5e8d4;strokeColor=#82b366;" vertex="1" parent="1">
                    <mxGeometry x="540" y="20" width="20" height="20" as="geometry"/>
                </mxCell>
                <mxCell id="9" value="‐" style="rounded=1;whiteSpace=wrap;html=1;arcSize=1;fillColor=#fff2cc;strokeColor=#d6b656;" vertex="1" parent="1">
                    <mxGeometry x="510" y="20" width="20" height="20" as="geometry"/>
                </mxCell>
                <mxCell id="10" value="" style="rounded=1;whiteSpace=wrap;html=1;arcSize=1;strokeColor=none;" vertex="1" parent="1">
                    <mxGeometry x="30" y="90" width="550" height="830" as="geometry"/>
                </mxCell>
                <mxCell id="11" value="プロジェクト２" style="rounded=1;whiteSpace=wrap;html=1;strokeColor=none;" vertex="1" parent="1">
                    <mxGeometry x="160" y="60" width="130" height="30" as="geometry"/>
                </mxCell>
                <mxCell id="12" value="プロジェクト３" style="rounded=1;whiteSpace=wrap;html=1;fillColor=#f5f5f5;strokeColor=none;fontColor=#333333;" vertex="1" parent="1">
                    <mxGeometry x="290" y="60" width="130" height="30" as="geometry"/>
                </mxCell>
                <mxCell id="13" value="プロジェクト１" style="rounded=1;whiteSpace=wrap;html=1;fillColor=#f5f5f5;fontColor=#333333;strokeColor=none;" vertex="1" parent="1">
                    <mxGeometry x="30" y="60" width="130" height="30" as="geometry"/>
                </mxCell>
                <mxCell id="14" value="＋" style="rounded=1;whiteSpace=wrap;html=1;fillColor=#EBEBEB;fontColor=#333333;strokeColor=none;" vertex="1" parent="1">
                    <mxGeometry x="420" y="60" width="30" height="30" as="geometry"/>
                </mxCell>
                <mxCell id="15" value="プロジェクト２" style="text;html=1;points=[];align=left;verticalAlign=top;spacingTop=-4;fontSize=28;fontFamily=Verdana" vertex="1" parent="1">
                    <mxGeometry x="55" y="110" width="305" height="40" as="geometry"/>
                </mxCell>
                <mxCell id="16" value="0%" style="rounded=1;whiteSpace=wrap;html=1;fillColor=#fff2cc;strokeColor=#d6b656;" vertex="1" parent="1">
                    <mxGeometry x="120" y="170" width="40" height="30" as="geometry"/>
                </mxCell>
                <mxCell id="17" value="25%" style="rounded=1;whiteSpace=wrap;html=1;fillColor=#fff2cc;strokeColor=#d6b656;" vertex="1" parent="1">
                    <mxGeometry x="120" y="210" width="40" height="30" as="geometry"/>
                </mxCell>
                <mxCell id="18" value="&lt;font style=&quot;font-size: 18px;&quot;&gt;フォルダ１ (2)&lt;/font&gt;" style="text;html=1;points=[];align=left;verticalAlign=top;spacingTop=-4;fontSize=15;fontFamily=Verdana" vertex="1" parent="1">
                    <mxGeometry x="170" y="170" width="170" height="30" as="geometry"/>
                </mxCell>
                <mxCell id="19" value="フォルダ２ (4)" style="text;html=1;points=[];align=left;verticalAlign=top;spacingTop=-4;fontSize=18;fontFamily=Verdana" vertex="1" parent="1">
                    <mxGeometry x="170" y="210" width="170" height="30" as="geometry"/>
                </mxCell>
                <mxCell id="20" value="100%" style="rounded=1;whiteSpace=wrap;html=1;fillColor=#fff2cc;strokeColor=#d6b656;" vertex="1" parent="1">
                    <mxGeometry x="120" y="250" width="40" height="30" as="geometry"/>
                </mxCell>
                <mxCell id="21" value="フォルダ3 (2)" style="text;html=1;points=[];align=left;verticalAlign=top;spacingTop=-4;fontSize=18;fontFamily=Verdana" vertex="1" parent="1">
                    <mxGeometry x="170" y="250" width="170" height="30" as="geometry"/>
                </mxCell>
                <mxCell id="22" value="フォルダ4(3)" style="text;html=1;points=[];align=left;verticalAlign=top;spacingTop=-4;fontSize=18;fontFamily=Verdana" vertex="1" parent="1">
                    <mxGeometry x="170" y="350" width="170" height="30" as="geometry"/>
                </mxCell>
                <mxCell id="23" value="33%" style="rounded=1;whiteSpace=wrap;html=1;fillColor=#fff2cc;strokeColor=#d6b656;" vertex="1" parent="1">
                    <mxGeometry x="120" y="350" width="40" height="30" as="geometry"/>
                </mxCell>
                <mxCell id="24" value="" style="whiteSpace=wrap;html=1;aspect=fixed;fillColor=default;fontColor=#CCCCCC;strokeColor=#CCCCCC;" vertex="1" parent="1">
                    <mxGeometry x="180" y="290" width="20" height="20" as="geometry"/>
                </mxCell>
                <mxCell id="25" value="&lt;span style=&quot;font-size: 16px;&quot;&gt;タスク７&lt;/span&gt;" style="text;html=1;points=[];align=left;verticalAlign=top;spacingTop=-4;fontSize=16;fontFamily=Verdana;fontColor=#CCCCCC;fontStyle=0" vertex="1" parent="1">
                    <mxGeometry x="210" y="288.75" width="80" height="22.5" as="geometry"/>
                </mxCell>
                <mxCell id="26" value="" style="whiteSpace=wrap;html=1;aspect=fixed;fillColor=default;fontColor=#CCCCCC;strokeColor=#CCCCCC;" vertex="1" parent="1">
                    <mxGeometry x="180" y="321.25" width="20" height="20" as="geometry"/>
                </mxCell>
                <mxCell id="27" value="&lt;span style=&quot;font-size: 16px;&quot;&gt;タスク８&lt;/span&gt;" style="text;html=1;points=[];align=left;verticalAlign=top;spacingTop=-4;fontSize=16;fontFamily=Verdana;fontColor=#CCCCCC;" vertex="1" parent="1">
                    <mxGeometry x="210" y="320" width="80" height="22.5" as="geometry"/>
                </mxCell>
                <mxCell id="28" value="" style="verticalLabelPosition=bottom;verticalAlign=top;html=1;shape=mxgraph.basic.tick;fontSize=16;fillColor=#f8cecc;strokeColor=#b85450;" vertex="1" parent="1">
                    <mxGeometry x="180" y="320" width="20" height="20" as="geometry"/>
                </mxCell>
                <mxCell id="29" value="" style="verticalLabelPosition=bottom;verticalAlign=top;html=1;shape=mxgraph.basic.tick;fontSize=16;fillColor=#f8cecc;strokeColor=#b85450;" vertex="1" parent="1">
                    <mxGeometry x="180" y="291.25" width="20" height="20" as="geometry"/>
                </mxCell>
                <mxCell id="30" value="" style="line;strokeWidth=2;html=1;strokeColor=#CCCCCC;fontSize=16;fontColor=#CCCCCC;fillColor=default;" vertex="1" parent="1">
                    <mxGeometry x="210" y="295" width="70" height="10" as="geometry"/>
                </mxCell>
                <mxCell id="31" value="" style="line;strokeWidth=2;html=1;strokeColor=#CCCCCC;fontSize=16;fontColor=#CCCCCC;fillColor=default;" vertex="1" parent="1">
                    <mxGeometry x="210" y="326.25" width="70" height="10" as="geometry"/>
                </mxCell>
                <mxCell id="32" value="" style="whiteSpace=wrap;html=1;aspect=fixed;fillColor=default;fontColor=#000000;strokeColor=#000000;" vertex="1" parent="1">
                    <mxGeometry x="180" y="385" width="20" height="20" as="geometry"/>
                </mxCell>
                <mxCell id="33" value="&lt;span style=&quot;font-size: 16px;&quot;&gt;タスク９&lt;/span&gt;" style="text;html=1;points=[];align=left;verticalAlign=top;spacingTop=-4;fontSize=16;fontFamily=Verdana;fontColor=#000000;" vertex="1" parent="1">
                    <mxGeometry x="210" y="383.75" width="80" height="22.5" as="geometry"/>
                </mxCell>
                <mxCell id="34" value="&lt;span style=&quot;font-size: 16px;&quot;&gt;タスク１１&lt;/span&gt;" style="text;html=1;points=[];align=left;verticalAlign=top;spacingTop=-4;fontSize=16;fontFamily=Verdana;fontColor=#000000;" vertex="1" parent="1">
                    <mxGeometry x="210" y="448.75" width="80" height="22.5" as="geometry"/>
                </mxCell>
                <mxCell id="35" value="" style="whiteSpace=wrap;html=1;aspect=fixed;fillColor=default;fontColor=#CCCCCC;strokeColor=#CCCCCC;" vertex="1" parent="1">
                    <mxGeometry x="180" y="416.5" width="20" height="20" as="geometry"/>
                </mxCell>
                <mxCell id="36" value="&lt;span style=&quot;font-size: 16px;&quot;&gt;タスク１０&lt;/span&gt;" style="text;html=1;points=[];align=left;verticalAlign=top;spacingTop=-4;fontSize=16;fontFamily=Verdana;fontColor=#CCCCCC;" vertex="1" parent="1">
                    <mxGeometry x="210" y="416.5" width="80" height="22.5" as="geometry"/>
                </mxCell>
                <mxCell id="37" value="" style="verticalLabelPosition=bottom;verticalAlign=top;html=1;shape=mxgraph.basic.tick;fontSize=16;fillColor=#f8cecc;strokeColor=#b85450;" vertex="1" parent="1">
                    <mxGeometry x="180" y="417.75" width="20" height="20" as="geometry"/>
                </mxCell>
                <mxCell id="38" value="" style="line;strokeWidth=2;html=1;strokeColor=#CCCCCC;fontSize=16;fontColor=#CCCCCC;fillColor=default;" vertex="1" parent="1">
                    <mxGeometry x="210" y="422.75" width="70" height="10" as="geometry"/>
                </mxCell>
                <mxCell id="39" value="&lt;font style=&quot;font-size: 18px;&quot;&gt;フォルダ5(0)&lt;/font&gt;" style="text;html=1;points=[];align=left;verticalAlign=top;spacingTop=-4;fontSize=15;fontFamily=Verdana" vertex="1" parent="1">
                    <mxGeometry x="170" y="480" width="170" height="30" as="geometry"/>
                </mxCell>
                <mxCell id="40" value="28%" style="rounded=1;whiteSpace=wrap;html=1;fillColor=#fff2cc;strokeColor=#d6b656;" vertex="1" parent="1">
                    <mxGeometry x="120" y="520" width="40" height="30" as="geometry"/>
                </mxCell>
                <mxCell id="41" value="&lt;font style=&quot;font-size: 18px;&quot;&gt;フォルダ6(7)&lt;/font&gt;" style="text;html=1;points=[];align=left;verticalAlign=top;spacingTop=-4;fontSize=15;fontFamily=Verdana" vertex="1" parent="1">
                    <mxGeometry x="170" y="520" width="170" height="30" as="geometry"/>
                </mxCell>
                <mxCell id="42" value="50%" style="rounded=1;whiteSpace=wrap;html=1;fillColor=#fff2cc;strokeColor=#d6b656;" vertex="1" parent="1">
                    <mxGeometry x="175" y="560" width="40" height="30" as="geometry"/>
                </mxCell>
                <mxCell id="43" value="&lt;font style=&quot;font-size: 18px;&quot;&gt;フォルダ7(2)&lt;/font&gt;" style="text;html=1;points=[];align=left;verticalAlign=top;spacingTop=-4;fontSize=15;fontFamily=Verdana" vertex="1" parent="1">
                    <mxGeometry x="225" y="560" width="170" height="30" as="geometry"/>
                </mxCell>
                <mxCell id="44" value="33%" style="rounded=1;whiteSpace=wrap;html=1;fillColor=#fff2cc;strokeColor=#d6b656;" vertex="1" parent="1">
                    <mxGeometry x="175" y="660" width="40" height="30" as="geometry"/>
                </mxCell>
                <mxCell id="45" value="&lt;font style=&quot;font-size: 18px;&quot;&gt;フォルダ8(3)&lt;/font&gt;" style="text;html=1;points=[];align=left;verticalAlign=top;spacingTop=-4;fontSize=15;fontFamily=Verdana" vertex="1" parent="1">
                    <mxGeometry x="225" y="660" width="170" height="30" as="geometry"/>
                </mxCell>
                <mxCell id="46" value="0%" style="rounded=1;whiteSpace=wrap;html=1;fillColor=#fff2cc;strokeColor=#d6b656;" vertex="1" parent="1">
                    <mxGeometry x="230" y="700" width="40" height="30" as="geometry"/>
                </mxCell>
                <mxCell id="47" value="&lt;font style=&quot;font-size: 18px;&quot;&gt;フォルダ9(2)&lt;/font&gt;" style="text;html=1;points=[];align=left;verticalAlign=top;spacingTop=-4;fontSize=15;fontFamily=Verdana" vertex="1" parent="1">
                    <mxGeometry x="280" y="700" width="170" height="30" as="geometry"/>
                </mxCell>
                <mxCell id="48" value="" style="whiteSpace=wrap;html=1;aspect=fixed;fillColor=default;fontColor=#000000;strokeColor=#000000;" vertex="1" parent="1">
                    <mxGeometry x="290" y="742.5" width="20" height="20" as="geometry"/>
                </mxCell>
                <mxCell id="49" value="&lt;span style=&quot;font-size: 16px;&quot;&gt;タスク１４&lt;/span&gt;" style="text;html=1;points=[];align=left;verticalAlign=top;spacingTop=-4;fontSize=16;fontFamily=Verdana;fontColor=#000000;" vertex="1" parent="1">
                    <mxGeometry x="322.5" y="740" width="80" height="22.5" as="geometry"/>
                </mxCell>
                <mxCell id="50" value="" style="whiteSpace=wrap;html=1;aspect=fixed;fillColor=default;fontColor=#000000;strokeColor=#000000;" vertex="1" parent="1">
                    <mxGeometry x="252.5" y="632.5" width="20" height="20" as="geometry"/>
                </mxCell>
                <mxCell id="51" value="&lt;span style=&quot;font-size: 16px;&quot;&gt;タスク１３&lt;br&gt;&lt;/span&gt;" style="text;html=1;points=[];align=left;verticalAlign=top;spacingTop=-4;fontSize=16;fontFamily=Verdana;fontColor=#000000;" vertex="1" parent="1">
                    <mxGeometry x="287.5" y="630" width="80" height="22.5" as="geometry"/>
                </mxCell>
                <mxCell id="52" value="" style="whiteSpace=wrap;html=1;aspect=fixed;fillColor=default;fontColor=#000000;strokeColor=#000000;" vertex="1" parent="1">
                    <mxGeometry x="290" y="772.5" width="20" height="20" as="geometry"/>
                </mxCell>
                <mxCell id="53" value="&lt;span style=&quot;font-size: 16px;&quot;&gt;タスク１５&lt;/span&gt;" style="text;html=1;points=[];align=left;verticalAlign=top;spacingTop=-4;fontSize=16;fontFamily=Verdana;fontColor=#000000;" vertex="1" parent="1">
                    <mxGeometry x="322.5" y="770" width="80" height="22.5" as="geometry"/>
                </mxCell>
                <mxCell id="54" value="" style="whiteSpace=wrap;html=1;aspect=fixed;fillColor=default;fontColor=#000000;strokeColor=#000000;" vertex="1" parent="1">
                    <mxGeometry x="175" y="829.25" width="20" height="20" as="geometry"/>
                </mxCell>
                <mxCell id="55" value="&lt;span style=&quot;font-size: 16px;&quot;&gt;タスク１７&lt;/span&gt;" style="text;html=1;points=[];align=left;verticalAlign=top;spacingTop=-4;fontSize=16;fontFamily=Verdana;fontColor=#000000;" vertex="1" parent="1">
                    <mxGeometry x="205" y="828" width="80" height="22.5" as="geometry"/>
                </mxCell>
                <mxCell id="56" value="" style="whiteSpace=wrap;html=1;aspect=fixed;fillColor=default;fontColor=#000000;strokeColor=#000000;" vertex="1" parent="1">
                    <mxGeometry x="175" y="861.25" width="20" height="20" as="geometry"/>
                </mxCell>
                <mxCell id="57" value="&lt;span style=&quot;font-size: 16px;&quot;&gt;タスク１８&lt;/span&gt;" style="text;html=1;points=[];align=left;verticalAlign=top;spacingTop=-4;fontSize=16;fontFamily=Verdana;fontColor=#000000;" vertex="1" parent="1">
                    <mxGeometry x="205" y="860" width="80" height="22.5" as="geometry"/>
                </mxCell>
                <mxCell id="58" value="" style="whiteSpace=wrap;html=1;aspect=fixed;fillColor=default;fontColor=#CCCCCC;strokeColor=#CCCCCC;" vertex="1" parent="1">
                    <mxGeometry x="230" y="801.25" width="20" height="20" as="geometry"/>
                </mxCell>
                <mxCell id="59" value="&lt;span style=&quot;font-size: 16px;&quot;&gt;タスク１６&lt;/span&gt;" style="text;html=1;points=[];align=left;verticalAlign=top;spacingTop=-4;fontSize=16;fontFamily=Verdana;fontColor=#CCCCCC;fontStyle=0" vertex="1" parent="1">
                    <mxGeometry x="260" y="800" width="80" height="22.5" as="geometry"/>
                </mxCell>
                <mxCell id="60" value="" style="verticalLabelPosition=bottom;verticalAlign=top;html=1;shape=mxgraph.basic.tick;fontSize=16;fillColor=#f8cecc;strokeColor=#b85450;" vertex="1" parent="1">
                    <mxGeometry x="230" y="802.5" width="20" height="20" as="geometry"/>
                </mxCell>
                <mxCell id="61" value="" style="line;strokeWidth=2;html=1;strokeColor=#CCCCCC;fontSize=16;fontColor=#CCCCCC;fillColor=default;" vertex="1" parent="1">
                    <mxGeometry x="260" y="806.25" width="70" height="10" as="geometry"/>
                </mxCell>
                <mxCell id="62" value="" style="whiteSpace=wrap;html=1;aspect=fixed;fillColor=default;fontColor=#CCCCCC;strokeColor=#CCCCCC;" vertex="1" parent="1">
                    <mxGeometry x="252.5" y="601.25" width="20" height="20" as="geometry"/>
                </mxCell>
                <mxCell id="63" value="&lt;span style=&quot;font-size: 16px;&quot;&gt;タスク１２&lt;/span&gt;" style="text;html=1;points=[];align=left;verticalAlign=top;spacingTop=-4;fontSize=16;fontFamily=Verdana;fontColor=#CCCCCC;fontStyle=0" vertex="1" parent="1">
                    <mxGeometry x="282.5" y="600" width="80" height="22.5" as="geometry"/>
                </mxCell>
                <mxCell id="64" value="" style="verticalLabelPosition=bottom;verticalAlign=top;html=1;shape=mxgraph.basic.tick;fontSize=16;fillColor=#f8cecc;strokeColor=#b85450;" vertex="1" parent="1">
                    <mxGeometry x="252.5" y="602.5" width="20" height="20" as="geometry"/>
                </mxCell>
                <mxCell id="65" value="" style="line;strokeWidth=2;html=1;strokeColor=#CCCCCC;fontSize=16;fontColor=#CCCCCC;fillColor=default;" vertex="1" parent="1">
                    <mxGeometry x="282.5" y="606.25" width="70" height="10" as="geometry"/>
                </mxCell>
                <mxCell id="66" value="" style="rounded=0;whiteSpace=wrap;html=1;labelBackgroundColor=none;strokeColor=#000000;strokeWidth=1;fontSize=16;fontColor=#000000;fillColor=#EDEDED;" vertex="1" parent="1">
                    <mxGeometry x="135.55" y="1501.25" width="244.45" height="150" as="geometry"/>
                </mxCell>
                <mxCell id="67" value="　名前の変更" style="rounded=0;whiteSpace=wrap;html=1;strokeColor=none;strokeWidth=1;fontSize=16;fontColor=#000000;fillColor=#EDEDED;align=left;labelBackgroundColor=none;" vertex="1" parent="1">
                    <mxGeometry x="168.05" y="1520" width="177.5" height="30" as="geometry"/>
                </mxCell>
                <mxCell id="68" value="　新規フォルダの作成" style="rounded=0;whiteSpace=wrap;html=1;strokeColor=#B3B3B3;strokeWidth=1;fontSize=16;fontColor=#000000;fillColor=#EDEDED;align=left;labelBackgroundColor=none;" vertex="1" parent="1">
                    <mxGeometry x="168.05" y="1580" width="191.95" height="30" as="geometry"/>
                </mxCell>
                <mxCell id="69" value="　フォルダ４を削除" style="rounded=0;whiteSpace=wrap;html=1;strokeColor=none;strokeWidth=1;fontSize=16;fontColor=#000000;fillColor=none;align=left;labelBackgroundColor=none;" vertex="1" parent="1">
                    <mxGeometry x="168.05" y="1550" width="177.5" height="30" as="geometry"/>
                </mxCell>
                <mxCell id="70" value="0%" style="rounded=1;whiteSpace=wrap;html=1;fillColor=#fff2cc;strokeColor=#d6b656;" vertex="1" parent="1">
                    <mxGeometry x="32.03" y="1481.25" width="40" height="30" as="geometry"/>
                </mxCell>
                <mxCell id="71" value="&lt;font style=&quot;font-size: 18px;&quot;&gt;フォルダ４ (2)&lt;/font&gt;" style="text;html=1;points=[];align=left;verticalAlign=top;spacingTop=-4;fontSize=15;fontFamily=Verdana" vertex="1" parent="1">
                    <mxGeometry x="82.03" y="1481.25" width="170" height="30" as="geometry"/>
                </mxCell>
                <mxCell id="72" value="" style="whiteSpace=wrap;html=1;aspect=fixed;fillColor=default;fontColor=#000000;strokeColor=#000000;" vertex="1" parent="1">
                    <mxGeometry x="37.03" y="1736.25" width="20" height="20" as="geometry"/>
                </mxCell>
                <mxCell id="73" value="&lt;span style=&quot;font-size: 16px;&quot;&gt;タスク５&lt;/span&gt;" style="text;html=1;points=[];align=left;verticalAlign=top;spacingTop=-4;fontSize=16;fontFamily=Verdana;fontColor=#000000;" vertex="1" parent="1">
                    <mxGeometry x="69.53" y="1733.75" width="80" height="22.5" as="geometry"/>
                </mxCell>
                <mxCell id="74" value="" style="rounded=0;whiteSpace=wrap;html=1;labelBackgroundColor=none;strokeColor=#000000;strokeWidth=1;fontSize=16;fontColor=#000000;fillColor=#EDEDED;" vertex="1" parent="1">
                    <mxGeometry x="137.02999999999997" y="1747.03" width="210" height="90" as="geometry"/>
                </mxCell>
                <mxCell id="75" value="　名前の変更" style="rounded=0;whiteSpace=wrap;html=1;strokeColor=#B3B3B3;strokeWidth=1;fontSize=16;fontColor=#000000;fillColor=#EDEDED;align=left;labelBackgroundColor=none;" vertex="1" parent="1">
                    <mxGeometry x="169.52999999999997" y="1765.78" width="157.5" height="30" as="geometry"/>
                </mxCell>
                <mxCell id="76" value="　タスク５を削除" style="rounded=0;whiteSpace=wrap;html=1;strokeColor=none;strokeWidth=1;fontSize=16;fontColor=#000000;fillColor=#EDEDED;align=left;labelBackgroundColor=none;" vertex="1" parent="1">
                    <mxGeometry x="169.52999999999997" y="1795.78" width="157.5" height="30" as="geometry"/>
                </mxCell>
                <mxCell id="77" value="" style="whiteSpace=wrap;html=1;aspect=fixed;fillColor=default;fontColor=#000000;strokeColor=#000000;" vertex="1" parent="1">
                    <mxGeometry x="32.03000000000003" y="2092.5" width="20" height="20" as="geometry"/>
                </mxCell>
                <mxCell id="78" value="&lt;span style=&quot;font-size: 16px;&quot;&gt;タスク２&lt;/span&gt;" style="text;html=1;points=[];align=left;verticalAlign=top;spacingTop=-4;fontSize=16;fontFamily=Verdana;fontColor=#000000;" vertex="1" parent="1">
                    <mxGeometry x="64.53000000000003" y="2090" width="80" height="22.5" as="geometry"/>
                </mxCell>
                <mxCell id="79" value="" style="triangle;whiteSpace=wrap;html=1;labelBackgroundColor=none;strokeColor=#000000;strokeWidth=1;fontSize=16;fontColor=#000000;fillColor=#FAFAFA;rotation=-120;" vertex="1" parent="1">
                    <mxGeometry x="37.50000000000006" y="2108.75" width="29.07" height="17.5" as="geometry"/>
                </mxCell>
                <mxCell id="80" value="" style="rounded=0;whiteSpace=wrap;html=1;strokeColor=#B3B3B3;strokeWidth=1;fontSize=16;fontColor=#000000;fillColor=none;align=left;labelBackgroundColor=none;" vertex="1" parent="1">
                    <mxGeometry x="34.53000000000003" y="2095" width="17.5" height="15" as="geometry"/>
                </mxCell>
                <mxCell id="81" value="" style="rounded=0;whiteSpace=wrap;html=1;labelBackgroundColor=none;strokeColor=#000000;strokeWidth=1;fontSize=16;fontColor=#000000;fillColor=#FFFFFF;" vertex="1" parent="1">
                    <mxGeometry x="111.56" y="2147.5" width="300.47" height="155" as="geometry"/>
                </mxCell>
                <mxCell id="82" value="×" style="rounded=1;whiteSpace=wrap;html=1;arcSize=0;fillColor=#f8cecc;strokeColor=#b85450;" vertex="1" parent="1">
                    <mxGeometry x="382.03" y="2155.25" width="20" height="20" as="geometry"/>
                </mxCell>
                <mxCell id="83" value="&lt;span style=&quot;font-size: 16px;&quot;&gt;タスク２（未作業）&lt;/span&gt;" style="text;html=1;points=[];align=left;verticalAlign=top;spacingTop=-4;fontSize=16;fontFamily=Verdana;fontColor=#000000;" vertex="1" parent="1">
                    <mxGeometry x="127.03000000000003" y="2158.75" width="80" height="22.5" as="geometry"/>
                </mxCell>
                <mxCell id="84" value="&lt;span style=&quot;font-size: 14px;&quot;&gt;（2023/3/14 14:43)&lt;/span&gt;" style="text;html=1;points=[];align=left;verticalAlign=top;spacingTop=-4;fontSize=14;fontFamily=Verdana;fontColor=#000000;" vertex="1" parent="1">
                    <mxGeometry x="254.05999999999972" y="2270" width="147.97" height="22.5" as="geometry"/>
                </mxCell>
                <mxCell id="85" value="" style="whiteSpace=wrap;html=1;aspect=fixed;fillColor=default;fontColor=#CCCCCC;strokeColor=#CCCCCC;" vertex="1" parent="1">
                    <mxGeometry x="37.03000000000003" y="1881.25" width="20" height="20" as="geometry"/>
                </mxCell>
                <mxCell id="86" value="&lt;span style=&quot;font-size: 16px;&quot;&gt;タスク１&lt;/span&gt;" style="text;html=1;points=[];align=left;verticalAlign=top;spacingTop=-4;fontSize=16;fontFamily=Verdana;fontColor=#CCCCCC;fontStyle=0" vertex="1" parent="1">
                    <mxGeometry x="67.03000000000003" y="1880" width="80" height="22.5" as="geometry"/>
                </mxCell>
                <mxCell id="87" value="" style="verticalLabelPosition=bottom;verticalAlign=top;html=1;shape=mxgraph.basic.tick;fontSize=16;fillColor=#f8cecc;strokeColor=#b85450;" vertex="1" parent="1">
                    <mxGeometry x="37.03000000000003" y="1882.5" width="20" height="20" as="geometry"/>
                </mxCell>
                <mxCell id="88" value="" style="line;strokeWidth=2;html=1;strokeColor=#CCCCCC;fontSize=16;fontColor=#CCCCCC;fillColor=default;" vertex="1" parent="1">
                    <mxGeometry x="67.03000000000003" y="1886.25" width="70" height="10" as="geometry"/>
                </mxCell>
                <mxCell id="89" value="" style="triangle;whiteSpace=wrap;html=1;labelBackgroundColor=none;strokeColor=#000000;strokeWidth=1;fontSize=16;fontColor=#000000;fillColor=#FAFAFA;rotation=-120;" vertex="1" parent="1">
                    <mxGeometry x="42.50000000000006" y="1901.25" width="29.07" height="17.5" as="geometry"/>
                </mxCell>
                <mxCell id="90" value="" style="rounded=0;whiteSpace=wrap;html=1;strokeColor=#B3B3B3;strokeWidth=1;fontSize=16;fontColor=#000000;fillColor=none;align=left;labelBackgroundColor=none;" vertex="1" parent="1">
                    <mxGeometry x="39.53000000000003" y="1883.75" width="17.5" height="15" as="geometry"/>
                </mxCell>
                <mxCell id="91" value="" style="triangle;whiteSpace=wrap;html=1;labelBackgroundColor=none;strokeColor=#000000;strokeWidth=1;fontSize=16;fontColor=#000000;fillColor=#000000;rotation=-125;" vertex="1" parent="1">
                    <mxGeometry x="130" y="1747" width="20" height="12.97" as="geometry"/>
                </mxCell>
                <mxCell id="92" value="" style="triangle;whiteSpace=wrap;html=1;labelBackgroundColor=none;strokeColor=#000000;strokeWidth=1;fontSize=16;fontColor=#000000;fillColor=#000000;rotation=-125;" vertex="1" parent="1">
                    <mxGeometry x="130.55" y="1498.28" width="20" height="12.97" as="geometry"/>
                </mxCell>
                <mxCell id="93" value="" style="rounded=0;whiteSpace=wrap;html=1;labelBackgroundColor=none;strokeColor=#000000;strokeWidth=1;fontSize=16;fontColor=#000000;fillColor=#FFFFFF;" vertex="1" parent="1">
                    <mxGeometry x="116.56" y="1911.25" width="250.47" height="152.5" as="geometry"/>
                </mxCell>
                <mxCell id="94" value="×" style="rounded=1;whiteSpace=wrap;html=1;arcSize=0;fillColor=#f8cecc;strokeColor=#b85450;" vertex="1" parent="1">
                    <mxGeometry x="340.0000000000002" y="1918.75" width="20" height="20" as="geometry"/>
                </mxCell>
                <mxCell id="95" value="&lt;span style=&quot;font-size: 16px;&quot;&gt;タスク１（完了済）&lt;/span&gt;" style="text;html=1;points=[];align=left;verticalAlign=top;spacingTop=-4;fontSize=16;fontFamily=Verdana;fontColor=#000000;" vertex="1" parent="1">
                    <mxGeometry x="132.03000000000003" y="1922.5" width="80" height="22.5" as="geometry"/>
                </mxCell>
                <mxCell id="96" value="&lt;span style=&quot;font-size: 14px;&quot;&gt;（2023/3/14 14:43)&lt;/span&gt;" style="text;html=1;points=[];align=left;verticalAlign=top;spacingTop=-4;fontSize=14;fontFamily=Verdana;fontColor=#000000;" vertex="1" parent="1">
                    <mxGeometry x="212.03000000000003" y="2036.25" width="147.97" height="22.5" as="geometry"/>
                </mxCell>
                <mxCell id="97" value="はい" style="rounded=1;whiteSpace=wrap;html=1;labelBackgroundColor=none;strokeColor=#B3B3B3;strokeWidth=1;fontSize=14;fontColor=#000000;fillColor=#FFFFFF;" vertex="1" parent="1">
                    <mxGeometry x="149.53000000000003" y="1988.75" width="75" height="35" as="geometry"/>
                </mxCell>
                <mxCell id="98" value="&lt;span style=&quot;font-size: 13px;&quot;&gt;本当に完了を取り消しますか？&lt;/span&gt;" style="text;html=1;points=[];align=left;verticalAlign=top;spacingTop=-4;fontSize=13;fontFamily=Verdana;fontColor=#000000;" vertex="1" parent="1">
                    <mxGeometry x="149.53000000000003" y="1956.25" width="147.97" height="22.5" as="geometry"/>
                </mxCell>
                <mxCell id="99" value="いいえ" style="rounded=1;whiteSpace=wrap;html=1;labelBackgroundColor=none;strokeColor=#B3B3B3;strokeWidth=1;fontSize=14;fontColor=#000000;fillColor=#FFFFFF;" vertex="1" parent="1">
                    <mxGeometry x="252.26000000000005" y="1988.75" width="80" height="35" as="geometry"/>
                </mxCell>
                <mxCell id="100" value="" style="whiteSpace=wrap;html=1;aspect=fixed;fillColor=default;fontColor=#000000;strokeColor=#000000;" vertex="1" parent="1">
                    <mxGeometry x="180" y="451.25" width="20" height="20" as="geometry"/>
                </mxCell>
                <mxCell id="101" value="" style="shape=actor;whiteSpace=wrap;html=1;labelBackgroundColor=none;strokeColor=#97D077;strokeWidth=4;fontSize=13;fontColor=#000000;fillColor=#97D077;" vertex="1" parent="1">
                    <mxGeometry x="185" y="450" width="10" height="18.75" as="geometry"/>
                </mxCell>
                <mxCell id="102" value="&lt;span style=&quot;font-size: 16px;&quot;&gt;タスク３&lt;/span&gt;" style="text;html=1;points=[];align=left;verticalAlign=top;spacingTop=-4;fontSize=16;fontFamily=Verdana;fontColor=#000000;" vertex="1" parent="1">
                    <mxGeometry x="472.50000000000006" y="1886.25" width="80" height="22.5" as="geometry"/>
                </mxCell>
                <mxCell id="103" value="" style="whiteSpace=wrap;html=1;aspect=fixed;fillColor=default;fontColor=#000000;strokeColor=#000000;" vertex="1" parent="1">
                    <mxGeometry x="442.50000000000006" y="1888.75" width="20" height="20" as="geometry"/>
                </mxCell>
                <mxCell id="104" value="" style="shape=actor;whiteSpace=wrap;html=1;labelBackgroundColor=none;strokeColor=#97D077;strokeWidth=4;fontSize=13;fontColor=#000000;fillColor=#97D077;" vertex="1" parent="1">
                    <mxGeometry x="447.50000000000006" y="1889.38" width="10" height="18.75" as="geometry"/>
                </mxCell>
                <mxCell id="105" value="" style="rounded=0;whiteSpace=wrap;html=1;strokeColor=#B3B3B3;strokeWidth=1;fontSize=16;fontColor=#000000;fillColor=none;align=left;labelBackgroundColor=none;" vertex="1" parent="1">
                    <mxGeometry x="445.00000000000006" y="1891.2600000000002" width="17.5" height="15" as="geometry"/>
                </mxCell>
                <mxCell id="106" value="" style="triangle;whiteSpace=wrap;html=1;labelBackgroundColor=none;strokeColor=#000000;strokeWidth=1;fontSize=16;fontColor=#000000;fillColor=#FAFAFA;rotation=-120;" vertex="1" parent="1">
                    <mxGeometry x="447.50000000000006" y="1906.2600000000002" width="29.07" height="17.5" as="geometry"/>
                </mxCell>
                <mxCell id="107" value="" style="rounded=0;whiteSpace=wrap;html=1;labelBackgroundColor=none;strokeColor=#000000;strokeWidth=1;fontSize=16;fontColor=#000000;fillColor=#FFFFFF;" vertex="1" parent="1">
                    <mxGeometry x="492.50000000000006" y="1925" width="300" height="171.25" as="geometry"/>
                </mxCell>
                <mxCell id="108" value="×" style="rounded=1;whiteSpace=wrap;html=1;arcSize=0;fillColor=#f8cecc;strokeColor=#b85450;" vertex="1" parent="1">
                    <mxGeometry x="762.5" y="1935" width="20" height="20" as="geometry"/>
                </mxCell>
                <mxCell id="109" value="&lt;span style=&quot;font-size: 16px;&quot;&gt;タスク３（作業中）&lt;/span&gt;" style="text;html=1;points=[];align=left;verticalAlign=top;spacingTop=-4;fontSize=16;fontFamily=Verdana;fontColor=#000000;" vertex="1" parent="1">
                    <mxGeometry x="512.5" y="1936.25" width="80" height="22.5" as="geometry"/>
                </mxCell>
                <mxCell id="110" value="&lt;span style=&quot;font-size: 14px;&quot;&gt;（2023/3/14 14:43)&lt;/span&gt;" style="text;html=1;points=[];align=left;verticalAlign=top;spacingTop=-4;fontSize=14;fontFamily=Verdana;fontColor=#000000;" vertex="1" parent="1">
                    <mxGeometry x="632.0299999999997" y="2060" width="147.97" height="22.5" as="geometry"/>
                </mxCell>
                <mxCell id="111" value="完了する" style="rounded=1;whiteSpace=wrap;html=1;labelBackgroundColor=none;strokeColor=#B3B3B3;strokeWidth=1;fontSize=14;fontColor=#000000;fillColor=#FFFFFF;" vertex="1" parent="1">
                    <mxGeometry x="522.5" y="1990.63" width="109.53" height="40" as="geometry"/>
                </mxCell>
                <mxCell id="112" value="未作業に戻す" style="rounded=1;whiteSpace=wrap;html=1;labelBackgroundColor=none;strokeColor=#B3B3B3;strokeWidth=1;fontSize=14;fontColor=#000000;fillColor=#FFFFFF;" vertex="1" parent="1">
                    <mxGeometry x="652.5" y="1990" width="110" height="40" as="geometry"/>
                </mxCell>
                <mxCell id="113" value="完了する" style="rounded=1;whiteSpace=wrap;html=1;labelBackgroundColor=none;strokeColor=#B3B3B3;strokeWidth=1;fontSize=14;fontColor=#000000;fillColor=#FFFFFF;" vertex="1" parent="1">
                    <mxGeometry x="142.03000000000003" y="2202.5" width="109.53" height="40" as="geometry"/>
                </mxCell>
                <mxCell id="114" value="作業中にする" style="rounded=1;whiteSpace=wrap;html=1;labelBackgroundColor=none;strokeColor=#B3B3B3;strokeWidth=1;fontSize=14;fontColor=#000000;fillColor=#FFFFFF;" vertex="1" parent="1">
                    <mxGeometry x="272.03" y="2201.25" width="110" height="40" as="geometry"/>
                </mxCell>
                <mxCell id="115" value="プロジェクト２" style="text;html=1;points=[];align=left;verticalAlign=top;spacingTop=-4;fontSize=30;fontFamily=Verdana" vertex="1" parent="1">
                    <mxGeometry x="32.03" y="1200" width="340" height="50" as="geometry"/>
                </mxCell>
                <mxCell id="116" value="" style="rounded=0;whiteSpace=wrap;html=1;labelBackgroundColor=none;strokeColor=#000000;strokeWidth=1;fontSize=16;fontColor=#000000;fillColor=#EDEDED;" vertex="1" parent="1">
                    <mxGeometry x="130.54999999999998" y="1226.5" width="251.48" height="153.5" as="geometry"/>
                </mxCell>
                <mxCell id="117" value="　名前の変更" style="rounded=0;whiteSpace=wrap;html=1;strokeColor=none;strokeWidth=1;fontSize=16;fontColor=#000000;fillColor=#EDEDED;align=left;labelBackgroundColor=none;" vertex="1" parent="1">
                    <mxGeometry x="163.04999999999998" y="1245.25" width="198.98" height="30" as="geometry"/>
                </mxCell>
                <mxCell id="118" value="　プロジェクト２を削除" style="rounded=0;whiteSpace=wrap;html=1;strokeColor=none;strokeWidth=1;fontSize=16;fontColor=#000000;fillColor=#EDEDED;align=left;labelBackgroundColor=none;" vertex="1" parent="1">
                    <mxGeometry x="163.04999999999998" y="1275.25" width="198.98" height="30" as="geometry"/>
                </mxCell>
                <mxCell id="119" value="" style="triangle;whiteSpace=wrap;html=1;labelBackgroundColor=none;strokeColor=#000000;strokeWidth=1;fontSize=16;fontColor=#000000;fillColor=#000000;rotation=-125;" vertex="1" parent="1">
                    <mxGeometry x="123.52000000000001" y="1227.28" width="20" height="12.97" as="geometry"/>
                </mxCell>
                <mxCell id="120" value="　新規フォルダの作成" style="rounded=0;whiteSpace=wrap;html=1;strokeColor=none;strokeWidth=1;fontSize=16;fontColor=#000000;fillColor=#EDEDED;align=left;labelBackgroundColor=none;" vertex="1" parent="1">
                    <mxGeometry x="163.04999999999998" y="1306.25" width="198.98" height="30" as="geometry"/>
                </mxCell>
                <mxCell id="121" value="　新規タスクの作成" style="rounded=0;whiteSpace=wrap;html=1;strokeColor=#B3B3B3;strokeWidth=1;fontSize=16;fontColor=#000000;fillColor=#EDEDED;align=left;labelBackgroundColor=none;" vertex="1" parent="1">
                    <mxGeometry x="163.04999999999998" y="1336.25" width="198.98" height="30" as="geometry"/>
                </mxCell>
                <mxCell id="122" value="" style="triangle;whiteSpace=wrap;html=1;labelBackgroundColor=none;strokeColor=#000000;strokeWidth=1;fontSize=16;fontColor=#000000;fillColor=#FAFAFA;rotation=-120;" vertex="1" parent="1">
                    <mxGeometry x="344.5300000000002" y="1357.5" width="29.07" height="17.5" as="geometry"/>
                </mxCell>
                <mxCell id="123" value="" style="rounded=0;whiteSpace=wrap;html=1;labelBackgroundColor=none;strokeColor=#000000;strokeWidth=1;fontSize=16;fontColor=#000000;fillColor=#FFFFFF;" vertex="1" parent="1">
                    <mxGeometry x="391.55999999999995" y="1336.25" width="300.47" height="108.75" as="geometry"/>
                </mxCell>
                <mxCell id="124" value="新規タスクの作成" style="text;html=1;points=[];align=left;verticalAlign=top;spacingTop=-4;fontSize=16;fontFamily=Verdana;fontColor=#000000;" vertex="1" parent="1">
                    <mxGeometry x="412.03" y="1352.5" width="80" height="22.5" as="geometry"/>
                </mxCell>
                <mxCell id="125" value="" style="rounded=1;whiteSpace=wrap;html=1;labelBackgroundColor=none;strokeColor=#B3B3B3;strokeWidth=1;fontSize=14;fontColor=#000000;fillColor=#FFFFFF;" vertex="1" parent="1">
                    <mxGeometry x="422.5" y="1385" width="189.53" height="30" as="geometry"/>
                </mxCell>
                <mxCell id="126" value="&lt;font color=&quot;#ffffff&quot; style=&quot;background-color: rgb(0, 115, 230);&quot;&gt;タスク１０&lt;/font&gt;" style="rounded=1;whiteSpace=wrap;html=1;labelBackgroundColor=none;strokeColor=none;strokeWidth=1;fontSize=14;fontColor=#000000;fillColor=none;align=left;" vertex="1" parent="1">
                    <mxGeometry x="432.03" y="1386.25" width="100" height="27.5" as="geometry"/>
                </mxCell>
                <mxCell id="127" value="作成" style="rounded=1;whiteSpace=wrap;html=1;labelBackgroundColor=none;strokeColor=#B3B3B3;strokeWidth=1;fontSize=14;fontColor=#000000;fillColor=#F5F5F5;" vertex="1" parent="1">
                    <mxGeometry x="622.03" y="1385" width="50" height="30" as="geometry"/>
                </mxCell>
                <mxCell id="128" value="×" style="rounded=1;whiteSpace=wrap;html=1;arcSize=0;fillColor=#f8cecc;strokeColor=#b85450;" vertex="1" parent="1">
                    <mxGeometry x="662.03" y="1342.5" width="20" height="20" as="geometry"/>
                </mxCell>
                <mxCell id="129" value="" style="rounded=0;whiteSpace=wrap;html=1;labelBackgroundColor=none;strokeColor=#000000;strokeWidth=1;fontSize=16;fontColor=#000000;fillColor=#FFFFFF;" vertex="1" parent="1">
                    <mxGeometry x="395" y="1580" width="300.47" height="108.75" as="geometry"/>
                </mxCell>
                <mxCell id="130" value="新規フォルダの作成" style="text;html=1;points=[];align=left;verticalAlign=top;spacingTop=-4;fontSize=16;fontFamily=Verdana;fontColor=#000000;" vertex="1" parent="1">
                    <mxGeometry x="415.47000000000025" y="1596.25" width="80" height="22.5" as="geometry"/>
                </mxCell>
                <mxCell id="131" value="" style="rounded=1;whiteSpace=wrap;html=1;labelBackgroundColor=none;strokeColor=#B3B3B3;strokeWidth=1;fontSize=14;fontColor=#000000;fillColor=#FFFFFF;" vertex="1" parent="1">
                    <mxGeometry x="425.94000000000005" y="1628.75" width="189.53" height="30" as="geometry"/>
                </mxCell>
                <mxCell id="132" value="&lt;font color=&quot;#ffffff&quot; style=&quot;background-color: rgb(0, 115, 230);&quot;&gt;フォルダ５&lt;/font&gt;" style="rounded=1;whiteSpace=wrap;html=1;labelBackgroundColor=none;strokeColor=none;strokeWidth=1;fontSize=14;fontColor=#000000;fillColor=none;align=left;" vertex="1" parent="1">
                    <mxGeometry x="435.47000000000025" y="1630" width="99.53" height="27.5" as="geometry"/>
                </mxCell>
                <mxCell id="133" value="作成" style="rounded=1;whiteSpace=wrap;html=1;labelBackgroundColor=none;strokeColor=#B3B3B3;strokeWidth=1;fontSize=14;fontColor=#000000;fillColor=#F5F5F5;" vertex="1" parent="1">
                    <mxGeometry x="625.4700000000003" y="1628.75" width="50" height="30" as="geometry"/>
                </mxCell>
                <mxCell id="134" value="×" style="rounded=1;whiteSpace=wrap;html=1;arcSize=0;fillColor=#f8cecc;strokeColor=#b85450;" vertex="1" parent="1">
                    <mxGeometry x="665.4700000000003" y="1586.25" width="20" height="20" as="geometry"/>
                </mxCell>
                <mxCell id="135" value="　新規タスクの作成" style="rounded=0;whiteSpace=wrap;html=1;strokeColor=none;strokeWidth=1;fontSize=16;fontColor=#000000;fillColor=#EDEDED;align=left;labelBackgroundColor=none;" vertex="1" parent="1">
                    <mxGeometry x="168.05" y="1610" width="177.5" height="30" as="geometry"/>
                </mxCell>
                <mxCell id="136" value="" style="triangle;whiteSpace=wrap;html=1;labelBackgroundColor=none;strokeColor=#000000;strokeWidth=1;fontSize=16;fontColor=#000000;fillColor=#FAFAFA;rotation=-120;" vertex="1" parent="1">
                    <mxGeometry x="322.5000000000002" y="1600" width="29.07" height="17.5" as="geometry"/>
                </mxCell>
                <mxCell id="137" value="プロジェクト３" style="rounded=1;whiteSpace=wrap;html=1;fillColor=#f5f5f5;strokeColor=none;fontColor=#333333;" vertex="1" parent="1">
                    <mxGeometry x="34.53" y="990" width="130" height="30" as="geometry"/>
                </mxCell>
                <mxCell id="138" value="" style="rounded=1;whiteSpace=wrap;html=1;fillColor=#EBEBEB;fontColor=#333333;strokeColor=none;" vertex="1" parent="1">
                    <mxGeometry x="164.53" y="990" width="30" height="30" as="geometry"/>
                </mxCell>
                <mxCell id="139" value="" style="ellipse;whiteSpace=wrap;html=1;aspect=fixed;strokeColor=none;fillColor=#CCCCCC;" vertex="1" parent="1">
                    <mxGeometry x="164.53" y="992.5" width="25" height="25" as="geometry"/>
                </mxCell>
                <mxCell id="140" value="＋" style="rounded=1;whiteSpace=wrap;html=1;fillColor=none;fontColor=#333333;strokeColor=none;" vertex="1" parent="1">
                    <mxGeometry x="162.03" y="990" width="30" height="30" as="geometry"/>
                </mxCell>
                <mxCell id="141" value="" style="triangle;whiteSpace=wrap;html=1;labelBackgroundColor=none;strokeColor=#000000;strokeWidth=1;fontSize=16;fontColor=#000000;fillColor=#FAFAFA;rotation=-120;" vertex="1" parent="1">
                    <mxGeometry x="175.46000000000006" y="1010" width="29.07" height="17.5" as="geometry"/>
                </mxCell>
                <mxCell id="142" value="" style="rounded=0;whiteSpace=wrap;html=1;labelBackgroundColor=none;strokeColor=#000000;strokeWidth=1;fontSize=16;fontColor=#000000;fillColor=#FFFFFF;" vertex="1" parent="1">
                    <mxGeometry x="214.53" y="1010" width="300.47" height="108.75" as="geometry"/>
                </mxCell>
                <mxCell id="143" value="新規プロジェクトの作成" style="text;html=1;points=[];align=left;verticalAlign=top;spacingTop=-4;fontSize=16;fontFamily=Verdana;fontColor=#000000;" vertex="1" parent="1">
                    <mxGeometry x="235.00000000000026" y="1026.25" width="80" height="22.5" as="geometry"/>
                </mxCell>
                <mxCell id="144" value="" style="rounded=1;whiteSpace=wrap;html=1;labelBackgroundColor=none;strokeColor=#B3B3B3;strokeWidth=1;fontSize=14;fontColor=#000000;fillColor=#FFFFFF;" vertex="1" parent="1">
                    <mxGeometry x="245.47000000000006" y="1058.75" width="189.53" height="30" as="geometry"/>
                </mxCell>
                <mxCell id="145" value="&lt;font color=&quot;#ffffff&quot; style=&quot;background-color: rgb(0, 115, 230);&quot;&gt;プロジェクト４&lt;/font&gt;" style="rounded=1;whiteSpace=wrap;html=1;labelBackgroundColor=none;strokeColor=none;strokeWidth=1;fontSize=14;fontColor=#000000;fillColor=none;align=left;" vertex="1" parent="1">
                    <mxGeometry x="255.00000000000026" y="1060" width="99.53" height="27.5" as="geometry"/>
                </mxCell>
                <mxCell id="146" value="作成" style="rounded=1;whiteSpace=wrap;html=1;labelBackgroundColor=none;strokeColor=#B3B3B3;strokeWidth=1;fontSize=14;fontColor=#000000;fillColor=#F5F5F5;" vertex="1" parent="1">
                    <mxGeometry x="445.0000000000002" y="1058.75" width="50" height="30" as="geometry"/>
                </mxCell>
                <mxCell id="147" value="×" style="rounded=1;whiteSpace=wrap;html=1;arcSize=0;fillColor=#f8cecc;strokeColor=#b85450;" vertex="1" parent="1">
                    <mxGeometry x="485.0000000000002" y="1016.25" width="20" height="20" as="geometry"/>
                </mxCell>
                <mxCell id="148" value="&lt;span style=&quot;font-size: 18px;&quot;&gt;タスクリスト&lt;/span&gt;" style="text;html=1;points=[];align=left;verticalAlign=top;spacingTop=-4;fontSize=15;fontFamily=Verdana" vertex="1" parent="1">
                    <mxGeometry x="45" y="16.25" width="170" height="30" as="geometry"/>
                </mxCell>
                <mxCell id="149" value="" style="whiteSpace=wrap;html=1;aspect=fixed;fillColor=default;fontColor=#CCCCCC;strokeColor=#CCCCCC;" vertex="1" parent="1">
                    <mxGeometry x="20" y="20.629999999999995" width="20" height="20" as="geometry"/>
                </mxCell>
                <mxCell id="150" value="" style="verticalLabelPosition=bottom;verticalAlign=top;html=1;shape=mxgraph.basic.tick;fontSize=16;fillColor=#f8cecc;strokeColor=#b85450;" vertex="1" parent="1">
                    <mxGeometry x="20" y="19.379999999999995" width="20" height="20" as="geometry"/>
                </mxCell>
                <mxCell id="151" value="0%" style="rounded=1;whiteSpace=wrap;html=1;fillColor=#fff2cc;strokeColor=#d6b656;" vertex="1" parent="1">
                    <mxGeometry x="120" y="480" width="40" height="30" as="geometry"/>
                </mxCell>
                <mxCell id="152" value="" style="rounded=1;whiteSpace=wrap;html=1;arcSize=0;" vertex="1" parent="1">
                    <mxGeometry x="920" y="123.5" width="590" height="370" as="geometry"/>
                </mxCell>
                <mxCell id="153" value="" style="rounded=1;whiteSpace=wrap;html=1;arcSize=0;fillColor=#D4E1F5;strokeColor=#36393d;" vertex="1" parent="1">
                    <mxGeometry x="930" y="163.5" width="570" height="320" as="geometry"/>
                </mxCell>
                <mxCell id="154" value="×" style="rounded=1;whiteSpace=wrap;html=1;arcSize=1;fillColor=#f8cecc;strokeColor=#b85450;" vertex="1" parent="1">
                    <mxGeometry x="1480" y="133.5" width="20" height="20" as="geometry"/>
                </mxCell>
                <mxCell id="155" value="□" style="rounded=1;whiteSpace=wrap;html=1;arcSize=1;fillColor=#d5e8d4;strokeColor=#82b366;" vertex="1" parent="1">
                    <mxGeometry x="1450" y="133.5" width="20" height="20" as="geometry"/>
                </mxCell>
                <mxCell id="156" value="‐" style="rounded=1;whiteSpace=wrap;html=1;arcSize=1;fillColor=#fff2cc;strokeColor=#d6b656;" vertex="1" parent="1">
                    <mxGeometry x="1420" y="133.5" width="20" height="20" as="geometry"/>
                </mxCell>
                <mxCell id="157" value="&lt;span style=&quot;font-size: 18px;&quot;&gt;タスクリスト&lt;/span&gt;" style="text;html=1;points=[];align=left;verticalAlign=top;spacingTop=-4;fontSize=15;fontFamily=Verdana" vertex="1" parent="1">
                    <mxGeometry x="955" y="129.75" width="170" height="30" as="geometry"/>
                </mxCell>
                <mxCell id="158" value="" style="whiteSpace=wrap;html=1;aspect=fixed;fillColor=default;fontColor=#CCCCCC;strokeColor=#CCCCCC;" vertex="1" parent="1">
                    <mxGeometry x="930" y="134.13" width="20" height="20" as="geometry"/>
                </mxCell>
                <mxCell id="159" value="" style="verticalLabelPosition=bottom;verticalAlign=top;html=1;shape=mxgraph.basic.tick;fontSize=16;fillColor=#f8cecc;strokeColor=#b85450;" vertex="1" parent="1">
                    <mxGeometry x="930" y="132.88" width="20" height="20" as="geometry"/>
                </mxCell>
                <mxCell id="160" value="" style="rounded=0;whiteSpace=wrap;html=1;labelBackgroundColor=none;strokeColor=#000000;strokeWidth=1;fontSize=16;fontColor=#000000;fillColor=#FFFFFF;" vertex="1" parent="1">
                    <mxGeometry x="1060" y="243.5" width="300.47" height="108.75" as="geometry"/>
                </mxCell>
                <mxCell id="161" value="新規プロジェクトの作成" style="text;html=1;points=[];align=left;verticalAlign=top;spacingTop=-4;fontSize=16;fontFamily=Verdana;fontColor=#000000;" vertex="1" parent="1">
                    <mxGeometry x="1080.4700000000003" y="259.75" width="80" height="22.5" as="geometry"/>
                </mxCell>
                <mxCell id="162" value="" style="rounded=1;whiteSpace=wrap;html=1;labelBackgroundColor=none;strokeColor=#B3B3B3;strokeWidth=1;fontSize=14;fontColor=#000000;fillColor=#FFFFFF;" vertex="1" parent="1">
                    <mxGeometry x="1090.94" y="292.25" width="189.53" height="30" as="geometry"/>
                </mxCell>
                <mxCell id="163" value="&lt;font color=&quot;#ffffff&quot; style=&quot;background-color: rgb(0, 115, 230);&quot;&gt;プロジェクト１&lt;/font&gt;" style="rounded=1;whiteSpace=wrap;html=1;labelBackgroundColor=none;strokeColor=none;strokeWidth=1;fontSize=14;fontColor=#000000;fillColor=none;align=left;" vertex="1" parent="1">
                    <mxGeometry x="1100.47" y="293.5" width="179.53" height="27.5" as="geometry"/>
                </mxCell>
                <mxCell id="164" value="作成" style="rounded=1;whiteSpace=wrap;html=1;labelBackgroundColor=none;strokeColor=#B3B3B3;strokeWidth=1;fontSize=14;fontColor=#000000;fillColor=#F5F5F5;" vertex="1" parent="1">
                    <mxGeometry x="1290.4700000000003" y="292.25" width="50" height="30" as="geometry"/>
                </mxCell>
                <mxCell id="165" value="" style="rounded=1;whiteSpace=wrap;html=1;arcSize=0;" vertex="1" parent="1">
                    <mxGeometry x="920" y="520" width="590" height="370" as="geometry"/>
                </mxCell>
                <mxCell id="166" value="" style="rounded=1;whiteSpace=wrap;html=1;arcSize=0;fillColor=#D4E1F5;strokeColor=#36393d;" vertex="1" parent="1">
                    <mxGeometry x="930" y="560" width="570" height="320" as="geometry"/>
                </mxCell>
                <mxCell id="167" value="×" style="rounded=1;whiteSpace=wrap;html=1;arcSize=1;fillColor=#f8cecc;strokeColor=#b85450;" vertex="1" parent="1">
                    <mxGeometry x="1480" y="530" width="20" height="20" as="geometry"/>
                </mxCell>
                <mxCell id="168" value="□" style="rounded=1;whiteSpace=wrap;html=1;arcSize=1;fillColor=#d5e8d4;strokeColor=#82b366;" vertex="1" parent="1">
                    <mxGeometry x="1450" y="530" width="20" height="20" as="geometry"/>
                </mxCell>
                <mxCell id="169" value="‐" style="rounded=1;whiteSpace=wrap;html=1;arcSize=1;fillColor=#fff2cc;strokeColor=#d6b656;" vertex="1" parent="1">
                    <mxGeometry x="1420" y="530" width="20" height="20" as="geometry"/>
                </mxCell>
                <mxCell id="170" value="&lt;span style=&quot;font-size: 18px;&quot;&gt;タスクリスト&lt;/span&gt;" style="text;html=1;points=[];align=left;verticalAlign=top;spacingTop=-4;fontSize=15;fontFamily=Verdana" vertex="1" parent="1">
                    <mxGeometry x="955" y="526.25" width="170" height="30" as="geometry"/>
                </mxCell>
                <mxCell id="171" value="" style="whiteSpace=wrap;html=1;aspect=fixed;fillColor=default;fontColor=#CCCCCC;strokeColor=#CCCCCC;" vertex="1" parent="1">
                    <mxGeometry x="930" y="530.63" width="20" height="20" as="geometry"/>
                </mxCell>
                <mxCell id="172" value="" style="verticalLabelPosition=bottom;verticalAlign=top;html=1;shape=mxgraph.basic.tick;fontSize=16;fillColor=#f8cecc;strokeColor=#b85450;" vertex="1" parent="1">
                    <mxGeometry x="930" y="529.38" width="20" height="20" as="geometry"/>
                </mxCell>
                <mxCell id="173" value="" style="rounded=1;whiteSpace=wrap;html=1;arcSize=1;strokeColor=none;" vertex="1" parent="1">
                    <mxGeometry x="940" y="600" width="550" height="270" as="geometry"/>
                </mxCell>
                <mxCell id="174" value="＋" style="rounded=1;whiteSpace=wrap;html=1;fillColor=#EBEBEB;fontColor=#333333;strokeColor=none;" vertex="1" parent="1">
                    <mxGeometry x="1070.47" y="571" width="30" height="30" as="geometry"/>
                </mxCell>
                <mxCell id="175" value="プロジェクト１" style="rounded=1;whiteSpace=wrap;html=1;strokeColor=none;" vertex="1" parent="1">
                    <mxGeometry x="940" y="572.25" width="130" height="30" as="geometry"/>
                </mxCell>
                <mxCell id="176" value="１．起動時の処理（新規プロジェクトの作成）" style="rounded=1;whiteSpace=wrap;html=1;strokeWidth=2;fillWeight=4;hachureGap=8;hachureAngle=45;fillColor=#d5e8d4;sketch=1;fontSize=18;strokeColor=#82b366;" vertex="1" parent="1">
                    <mxGeometry x="880" y="40.63" width="380" height="39.37" as="geometry"/>
                </mxCell>
                <mxCell id="177" value="" style="rounded=1;whiteSpace=wrap;html=1;arcSize=0;" vertex="1" parent="1">
                    <mxGeometry x="880" y="1240.25" width="590" height="339.75" as="geometry"/>
                </mxCell>
                <mxCell id="178" value="" style="rounded=1;whiteSpace=wrap;html=1;arcSize=0;fillColor=#D4E1F5;strokeColor=#36393d;" vertex="1" parent="1">
                    <mxGeometry x="890" y="1280.25" width="570" height="289.75" as="geometry"/>
                </mxCell>
                <mxCell id="179" value="×" style="rounded=1;whiteSpace=wrap;html=1;arcSize=1;fillColor=#f8cecc;strokeColor=#b85450;" vertex="1" parent="1">
                    <mxGeometry x="1440" y="1250.25" width="20" height="20" as="geometry"/>
                </mxCell>
                <mxCell id="180" value="□" style="rounded=1;whiteSpace=wrap;html=1;arcSize=1;fillColor=#d5e8d4;strokeColor=#82b366;" vertex="1" parent="1">
                    <mxGeometry x="1410" y="1250.25" width="20" height="20" as="geometry"/>
                </mxCell>
                <mxCell id="181" value="‐" style="rounded=1;whiteSpace=wrap;html=1;arcSize=1;fillColor=#fff2cc;strokeColor=#d6b656;" vertex="1" parent="1">
                    <mxGeometry x="1380" y="1250.25" width="20" height="20" as="geometry"/>
                </mxCell>
                <mxCell id="182" value="&lt;span style=&quot;font-size: 18px;&quot;&gt;タスクリスト&lt;/span&gt;" style="text;html=1;points=[];align=left;verticalAlign=top;spacingTop=-4;fontSize=15;fontFamily=Verdana" vertex="1" parent="1">
                    <mxGeometry x="915" y="1246.5" width="170" height="30" as="geometry"/>
                </mxCell>
                <mxCell id="183" value="" style="whiteSpace=wrap;html=1;aspect=fixed;fillColor=default;fontColor=#CCCCCC;strokeColor=#CCCCCC;" vertex="1" parent="1">
                    <mxGeometry x="890" y="1250.88" width="20" height="20" as="geometry"/>
                </mxCell>
                <mxCell id="184" value="" style="verticalLabelPosition=bottom;verticalAlign=top;html=1;shape=mxgraph.basic.tick;fontSize=16;fillColor=#f8cecc;strokeColor=#b85450;" vertex="1" parent="1">
                    <mxGeometry x="890" y="1249.63" width="20" height="20" as="geometry"/>
                </mxCell>
                <mxCell id="185" value="" style="rounded=1;whiteSpace=wrap;html=1;arcSize=0;" vertex="1" parent="1">
                    <mxGeometry x="880" y="1600" width="590" height="340" as="geometry"/>
                </mxCell>
                <mxCell id="186" value="" style="rounded=1;whiteSpace=wrap;html=1;arcSize=0;fillColor=#D4E1F5;strokeColor=#36393d;" vertex="1" parent="1">
                    <mxGeometry x="890" y="1640" width="570" height="290" as="geometry"/>
                </mxCell>
                <mxCell id="187" value="×" style="rounded=1;whiteSpace=wrap;html=1;arcSize=1;fillColor=#f8cecc;strokeColor=#b85450;" vertex="1" parent="1">
                    <mxGeometry x="1440" y="1610" width="20" height="20" as="geometry"/>
                </mxCell>
                <mxCell id="188" value="□" style="rounded=1;whiteSpace=wrap;html=1;arcSize=1;fillColor=#d5e8d4;strokeColor=#82b366;" vertex="1" parent="1">
                    <mxGeometry x="1410" y="1610" width="20" height="20" as="geometry"/>
                </mxCell>
                <mxCell id="189" value="‐" style="rounded=1;whiteSpace=wrap;html=1;arcSize=1;fillColor=#fff2cc;strokeColor=#d6b656;" vertex="1" parent="1">
                    <mxGeometry x="1380" y="1610" width="20" height="20" as="geometry"/>
                </mxCell>
                <mxCell id="190" value="&lt;span style=&quot;font-size: 18px;&quot;&gt;タスクリスト&lt;/span&gt;" style="text;html=1;points=[];align=left;verticalAlign=top;spacingTop=-4;fontSize=15;fontFamily=Verdana" vertex="1" parent="1">
                    <mxGeometry x="915" y="1606.25" width="170" height="30" as="geometry"/>
                </mxCell>
                <mxCell id="191" value="" style="whiteSpace=wrap;html=1;aspect=fixed;fillColor=default;fontColor=#CCCCCC;strokeColor=#CCCCCC;" vertex="1" parent="1">
                    <mxGeometry x="890" y="1610.63" width="20" height="20" as="geometry"/>
                </mxCell>
                <mxCell id="192" value="" style="verticalLabelPosition=bottom;verticalAlign=top;html=1;shape=mxgraph.basic.tick;fontSize=16;fillColor=#f8cecc;strokeColor=#b85450;" vertex="1" parent="1">
                    <mxGeometry x="890" y="1609.38" width="20" height="20" as="geometry"/>
                </mxCell>
                <mxCell id="193" value="２．新規フォルダの作成" style="rounded=1;whiteSpace=wrap;html=1;strokeWidth=2;fillWeight=4;hachureGap=8;hachureAngle=45;fillColor=#d5e8d4;sketch=1;fontSize=18;strokeColor=#82b366;" vertex="1" parent="1">
                    <mxGeometry x="860.47" y="1189.94" width="230" height="36.56" as="geometry"/>
                </mxCell>
                <mxCell id="194" value="プロジェクト１" style="text;html=1;points=[];align=left;verticalAlign=top;spacingTop=-4;fontSize=28;fontFamily=Verdana" vertex="1" parent="1">
                    <mxGeometry x="967.97" y="613.75" width="305" height="40" as="geometry"/>
                </mxCell>
                <mxCell id="195" value="" style="rounded=1;whiteSpace=wrap;html=1;arcSize=1;strokeColor=none;" vertex="1" parent="1">
                    <mxGeometry x="900" y="1679.94" width="550" height="240.06" as="geometry"/>
                </mxCell>
                <mxCell id="196" value="＋" style="rounded=1;whiteSpace=wrap;html=1;fillColor=#EBEBEB;fontColor=#333333;strokeColor=none;" vertex="1" parent="1">
                    <mxGeometry x="1030.47" y="1650.94" width="30" height="30" as="geometry"/>
                </mxCell>
                <mxCell id="197" value="プロジェクト１" style="rounded=1;whiteSpace=wrap;html=1;strokeColor=none;" vertex="1" parent="1">
                    <mxGeometry x="900" y="1652.19" width="130" height="30" as="geometry"/>
                </mxCell>
                <mxCell id="198" value="プロジェクト１" style="text;html=1;points=[];align=left;verticalAlign=top;spacingTop=-4;fontSize=28;fontFamily=Verdana;strokeColor=#B3B3B3;" vertex="1" parent="1">
                    <mxGeometry x="927.97" y="1693.69" width="202.03" height="40" as="geometry"/>
                </mxCell>
                <mxCell id="199" value="" style="rounded=1;whiteSpace=wrap;html=1;arcSize=1;strokeColor=none;" vertex="1" parent="1">
                    <mxGeometry x="900" y="1319.69" width="550" height="240.31" as="geometry"/>
                </mxCell>
                <mxCell id="200" value="＋" style="rounded=1;whiteSpace=wrap;html=1;fillColor=#EBEBEB;fontColor=#333333;strokeColor=none;" vertex="1" parent="1">
                    <mxGeometry x="1030.47" y="1290.69" width="30" height="30" as="geometry"/>
                </mxCell>
                <mxCell id="201" value="プロジェクト１" style="rounded=1;whiteSpace=wrap;html=1;strokeColor=none;" vertex="1" parent="1">
                    <mxGeometry x="900" y="1291.94" width="130" height="30" as="geometry"/>
                </mxCell>
                <mxCell id="202" value="" style="rounded=0;whiteSpace=wrap;html=1;labelBackgroundColor=none;strokeColor=#000000;strokeWidth=1;fontSize=16;fontColor=#000000;fillColor=#FFFFFF;" vertex="1" parent="1">
                    <mxGeometry x="1011.49" y="1747.03" width="300.47" height="108.75" as="geometry"/>
                </mxCell>
                <mxCell id="203" value="新規フォルダの作成" style="text;html=1;points=[];align=left;verticalAlign=top;spacingTop=-4;fontSize=16;fontFamily=Verdana;fontColor=#000000;" vertex="1" parent="1">
                    <mxGeometry x="1031.9600000000003" y="1763.28" width="80" height="22.5" as="geometry"/>
                </mxCell>
                <mxCell id="204" value="" style="rounded=1;whiteSpace=wrap;html=1;labelBackgroundColor=none;strokeColor=#B3B3B3;strokeWidth=1;fontSize=14;fontColor=#000000;fillColor=#FFFFFF;" vertex="1" parent="1">
                    <mxGeometry x="1042.43" y="1795.78" width="189.53" height="30" as="geometry"/>
                </mxCell>
                <mxCell id="205" value="&lt;font color=&quot;#ffffff&quot; style=&quot;background-color: rgb(0, 115, 230);&quot;&gt;フォルダ１&lt;/font&gt;" style="rounded=1;whiteSpace=wrap;html=1;labelBackgroundColor=none;strokeColor=none;strokeWidth=1;fontSize=14;fontColor=#000000;fillColor=none;align=left;" vertex="1" parent="1">
                    <mxGeometry x="1051.9600000000003" y="1797.03" width="99.53" height="27.5" as="geometry"/>
                </mxCell>
                <mxCell id="206" value="作成" style="rounded=1;whiteSpace=wrap;html=1;labelBackgroundColor=none;strokeColor=#B3B3B3;strokeWidth=1;fontSize=14;fontColor=#000000;fillColor=#F5F5F5;" vertex="1" parent="1">
                    <mxGeometry x="1241.9600000000003" y="1795.78" width="50" height="30" as="geometry"/>
                </mxCell>
                <mxCell id="207" value="×" style="rounded=1;whiteSpace=wrap;html=1;arcSize=0;fillColor=#f8cecc;strokeColor=#b85450;" vertex="1" parent="1">
                    <mxGeometry x="1281.9600000000003" y="1753.28" width="20" height="20" as="geometry"/>
                </mxCell>
                <mxCell id="208" value="" style="rounded=1;whiteSpace=wrap;html=1;arcSize=0;" vertex="1" parent="1">
                    <mxGeometry x="880" y="2420" width="590" height="350" as="geometry"/>
                </mxCell>
                <mxCell id="209" value="" style="rounded=1;whiteSpace=wrap;html=1;arcSize=0;fillColor=#D4E1F5;strokeColor=#36393d;" vertex="1" parent="1">
                    <mxGeometry x="890" y="2460" width="570" height="300" as="geometry"/>
                </mxCell>
                <mxCell id="210" value="×" style="rounded=1;whiteSpace=wrap;html=1;arcSize=1;fillColor=#f8cecc;strokeColor=#b85450;" vertex="1" parent="1">
                    <mxGeometry x="1440" y="2430" width="20" height="20" as="geometry"/>
                </mxCell>
                <mxCell id="211" value="□" style="rounded=1;whiteSpace=wrap;html=1;arcSize=1;fillColor=#d5e8d4;strokeColor=#82b366;" vertex="1" parent="1">
                    <mxGeometry x="1410" y="2430" width="20" height="20" as="geometry"/>
                </mxCell>
                <mxCell id="212" value="‐" style="rounded=1;whiteSpace=wrap;html=1;arcSize=1;fillColor=#fff2cc;strokeColor=#d6b656;" vertex="1" parent="1">
                    <mxGeometry x="1380" y="2430" width="20" height="20" as="geometry"/>
                </mxCell>
                <mxCell id="213" value="&lt;span style=&quot;font-size: 18px;&quot;&gt;タスクリスト&lt;/span&gt;" style="text;html=1;points=[];align=left;verticalAlign=top;spacingTop=-4;fontSize=15;fontFamily=Verdana" vertex="1" parent="1">
                    <mxGeometry x="915" y="2426.25" width="170" height="30" as="geometry"/>
                </mxCell>
                <mxCell id="214" value="" style="whiteSpace=wrap;html=1;aspect=fixed;fillColor=default;fontColor=#CCCCCC;strokeColor=#CCCCCC;" vertex="1" parent="1">
                    <mxGeometry x="890" y="2430.63" width="20" height="20" as="geometry"/>
                </mxCell>
                <mxCell id="215" value="" style="verticalLabelPosition=bottom;verticalAlign=top;html=1;shape=mxgraph.basic.tick;fontSize=16;fillColor=#f8cecc;strokeColor=#b85450;" vertex="1" parent="1">
                    <mxGeometry x="890" y="2429.38" width="20" height="20" as="geometry"/>
                </mxCell>
                <mxCell id="216" value="３．新規タスクの作成" style="rounded=1;whiteSpace=wrap;html=1;strokeWidth=2;fillWeight=4;hachureGap=8;hachureAngle=45;fillColor=#d5e8d4;sketch=1;fontSize=18;strokeColor=#82b366;" vertex="1" parent="1">
                    <mxGeometry x="860" y="2360" width="210" height="40" as="geometry"/>
                </mxCell>
                <mxCell id="217" value="" style="rounded=1;whiteSpace=wrap;html=1;arcSize=1;strokeColor=none;" vertex="1" parent="1">
                    <mxGeometry x="900" y="2499.94" width="550" height="250.06" as="geometry"/>
                </mxCell>
                <mxCell id="218" value="＋" style="rounded=1;whiteSpace=wrap;html=1;fillColor=#EBEBEB;fontColor=#333333;strokeColor=none;" vertex="1" parent="1">
                    <mxGeometry x="1030.47" y="2470.94" width="30" height="30" as="geometry"/>
                </mxCell>
                <mxCell id="219" value="プロジェクト１" style="rounded=1;whiteSpace=wrap;html=1;strokeColor=none;" vertex="1" parent="1">
                    <mxGeometry x="900" y="2472.19" width="130" height="30" as="geometry"/>
                </mxCell>
                <mxCell id="220" value="プロジェクト１" style="text;html=1;points=[];align=left;verticalAlign=top;spacingTop=-4;fontSize=28;fontFamily=Verdana" vertex="1" parent="1">
                    <mxGeometry x="927.97" y="2513.69" width="305" height="40" as="geometry"/>
                </mxCell>
                <mxCell id="221" value="" style="rounded=1;whiteSpace=wrap;html=1;arcSize=0;" vertex="1" parent="1">
                    <mxGeometry x="880" y="2780" width="590" height="350" as="geometry"/>
                </mxCell>
                <mxCell id="222" value="" style="rounded=1;whiteSpace=wrap;html=1;arcSize=0;fillColor=#D4E1F5;strokeColor=#36393d;" vertex="1" parent="1">
                    <mxGeometry x="890" y="2820" width="570" height="300" as="geometry"/>
                </mxCell>
                <mxCell id="223" value="×" style="rounded=1;whiteSpace=wrap;html=1;arcSize=1;fillColor=#f8cecc;strokeColor=#b85450;" vertex="1" parent="1">
                    <mxGeometry x="1440" y="2790" width="20" height="20" as="geometry"/>
                </mxCell>
                <mxCell id="224" value="□" style="rounded=1;whiteSpace=wrap;html=1;arcSize=1;fillColor=#d5e8d4;strokeColor=#82b366;" vertex="1" parent="1">
                    <mxGeometry x="1410" y="2790" width="20" height="20" as="geometry"/>
                </mxCell>
                <mxCell id="225" value="‐" style="rounded=1;whiteSpace=wrap;html=1;arcSize=1;fillColor=#fff2cc;strokeColor=#d6b656;" vertex="1" parent="1">
                    <mxGeometry x="1380" y="2790" width="20" height="20" as="geometry"/>
                </mxCell>
                <mxCell id="226" value="&lt;span style=&quot;font-size: 18px;&quot;&gt;タスクリスト&lt;/span&gt;" style="text;html=1;points=[];align=left;verticalAlign=top;spacingTop=-4;fontSize=15;fontFamily=Verdana" vertex="1" parent="1">
                    <mxGeometry x="915" y="2786.25" width="170" height="30" as="geometry"/>
                </mxCell>
                <mxCell id="227" value="" style="whiteSpace=wrap;html=1;aspect=fixed;fillColor=default;fontColor=#CCCCCC;strokeColor=#CCCCCC;" vertex="1" parent="1">
                    <mxGeometry x="890" y="2790.63" width="20" height="20" as="geometry"/>
                </mxCell>
                <mxCell id="228" value="" style="verticalLabelPosition=bottom;verticalAlign=top;html=1;shape=mxgraph.basic.tick;fontSize=16;fillColor=#f8cecc;strokeColor=#b85450;" vertex="1" parent="1">
                    <mxGeometry x="890" y="2789.38" width="20" height="20" as="geometry"/>
                </mxCell>
                <mxCell id="229" value="" style="rounded=1;whiteSpace=wrap;html=1;arcSize=1;strokeColor=none;" vertex="1" parent="1">
                    <mxGeometry x="900" y="2859.94" width="550" height="250.06" as="geometry"/>
                </mxCell>
                <mxCell id="230" value="＋" style="rounded=1;whiteSpace=wrap;html=1;fillColor=#EBEBEB;fontColor=#333333;strokeColor=none;" vertex="1" parent="1">
                    <mxGeometry x="1030.47" y="2830.94" width="30" height="30" as="geometry"/>
                </mxCell>
                <mxCell id="231" value="プロジェクト１" style="rounded=1;whiteSpace=wrap;html=1;strokeColor=none;" vertex="1" parent="1">
                    <mxGeometry x="900" y="2832.19" width="130" height="30" as="geometry"/>
                </mxCell>
                <mxCell id="232" value="プロジェクト１" style="text;html=1;points=[];align=left;verticalAlign=top;spacingTop=-4;fontSize=28;fontFamily=Verdana" vertex="1" parent="1">
                    <mxGeometry x="927.97" y="2873.69" width="305" height="40" as="geometry"/>
                </mxCell>
                <mxCell id="233" value="0%" style="rounded=1;whiteSpace=wrap;html=1;fillColor=#fff2cc;strokeColor=#d6b656;" vertex="1" parent="1">
                    <mxGeometry x="970.47" y="2920.4700000000003" width="40" height="30" as="geometry"/>
                </mxCell>
                <mxCell id="234" value="&lt;font style=&quot;font-size: 18px;&quot;&gt;フォルダ１ (0)&lt;/font&gt;" style="text;html=1;points=[];align=left;verticalAlign=top;spacingTop=-4;fontSize=15;fontFamily=Verdana;strokeColor=#B3B3B3;" vertex="1" parent="1">
                    <mxGeometry x="1020.47" y="2920.47" width="129.53" height="30" as="geometry"/>
                </mxCell>
                <mxCell id="235" value="" style="rounded=1;whiteSpace=wrap;html=1;arcSize=0;" vertex="1" parent="1">
                    <mxGeometry x="880" y="1958.75" width="590" height="341.25" as="geometry"/>
                </mxCell>
                <mxCell id="236" value="" style="rounded=1;whiteSpace=wrap;html=1;arcSize=0;fillColor=#D4E1F5;strokeColor=#36393d;" vertex="1" parent="1">
                    <mxGeometry x="890" y="1998.75" width="570" height="291.25" as="geometry"/>
                </mxCell>
                <mxCell id="237" value="×" style="rounded=1;whiteSpace=wrap;html=1;arcSize=1;fillColor=#f8cecc;strokeColor=#b85450;" vertex="1" parent="1">
                    <mxGeometry x="1440" y="1968.75" width="20" height="20" as="geometry"/>
                </mxCell>
                <mxCell id="238" value="□" style="rounded=1;whiteSpace=wrap;html=1;arcSize=1;fillColor=#d5e8d4;strokeColor=#82b366;" vertex="1" parent="1">
                    <mxGeometry x="1410" y="1968.75" width="20" height="20" as="geometry"/>
                </mxCell>
                <mxCell id="239" value="‐" style="rounded=1;whiteSpace=wrap;html=1;arcSize=1;fillColor=#fff2cc;strokeColor=#d6b656;" vertex="1" parent="1">
                    <mxGeometry x="1380" y="1968.75" width="20" height="20" as="geometry"/>
                </mxCell>
                <mxCell id="240" value="&lt;span style=&quot;font-size: 18px;&quot;&gt;タスクリスト&lt;/span&gt;" style="text;html=1;points=[];align=left;verticalAlign=top;spacingTop=-4;fontSize=15;fontFamily=Verdana" vertex="1" parent="1">
                    <mxGeometry x="915" y="1965" width="170" height="30" as="geometry"/>
                </mxCell>
                <mxCell id="241" value="" style="whiteSpace=wrap;html=1;aspect=fixed;fillColor=default;fontColor=#CCCCCC;strokeColor=#CCCCCC;" vertex="1" parent="1">
                    <mxGeometry x="890" y="1969.38" width="20" height="20" as="geometry"/>
                </mxCell>
                <mxCell id="242" value="" style="verticalLabelPosition=bottom;verticalAlign=top;html=1;shape=mxgraph.basic.tick;fontSize=16;fillColor=#f8cecc;strokeColor=#b85450;" vertex="1" parent="1">
                    <mxGeometry x="890" y="1968.13" width="20" height="20" as="geometry"/>
                </mxCell>
                <mxCell id="243" value="" style="rounded=1;whiteSpace=wrap;html=1;arcSize=1;strokeColor=none;" vertex="1" parent="1">
                    <mxGeometry x="900" y="2038.69" width="550" height="241.31" as="geometry"/>
                </mxCell>
                <mxCell id="244" value="＋" style="rounded=1;whiteSpace=wrap;html=1;fillColor=#EBEBEB;fontColor=#333333;strokeColor=none;" vertex="1" parent="1">
                    <mxGeometry x="1030.47" y="2009.69" width="30" height="30" as="geometry"/>
                </mxCell>
                <mxCell id="245" value="プロジェクト１" style="rounded=1;whiteSpace=wrap;html=1;strokeColor=none;" vertex="1" parent="1">
                    <mxGeometry x="900" y="2010.94" width="130" height="30" as="geometry"/>
                </mxCell>
                <mxCell id="246" value="プロジェクト１" style="text;html=1;points=[];align=left;verticalAlign=top;spacingTop=-4;fontSize=28;fontFamily=Verdana" vertex="1" parent="1">
                    <mxGeometry x="927.97" y="2052.44" width="305" height="40" as="geometry"/>
                </mxCell>
                <mxCell id="247" value="0%" style="rounded=1;whiteSpace=wrap;html=1;fillColor=#fff2cc;strokeColor=#d6b656;" vertex="1" parent="1">
                    <mxGeometry x="970.47" y="2099.2200000000003" width="40" height="30" as="geometry"/>
                </mxCell>
                <mxCell id="248" value="&lt;font style=&quot;font-size: 18px;&quot;&gt;フォルダ１ (0)&lt;/font&gt;" style="text;html=1;points=[];align=left;verticalAlign=top;spacingTop=-4;fontSize=15;fontFamily=Verdana" vertex="1" parent="1">
                    <mxGeometry x="1020.47" y="2099.2200000000003" width="170" height="30" as="geometry"/>
                </mxCell>
                <mxCell id="249" value="" style="rounded=0;whiteSpace=wrap;html=1;strokeColor=#B3B3B3;strokeWidth=1;fontSize=16;fontColor=#000000;fillColor=none;align=left;labelBackgroundColor=none;" vertex="1" parent="1">
                    <mxGeometry x="920" y="1331.25" width="210" height="38.75" as="geometry"/>
                </mxCell>
                <mxCell id="250" value="プロジェクト１" style="text;html=1;points=[];align=left;verticalAlign=top;spacingTop=-4;fontSize=30;fontFamily=Verdana" vertex="1" parent="1">
                    <mxGeometry x="920" y="1330" width="340" height="50" as="geometry"/>
                </mxCell>
                <mxCell id="251" value="" style="rounded=0;whiteSpace=wrap;html=1;labelBackgroundColor=none;strokeColor=#000000;strokeWidth=1;fontSize=16;fontColor=#000000;fillColor=#EDEDED;" vertex="1" parent="1">
                    <mxGeometry x="1018.52" y="1356.5" width="251.48" height="153.5" as="geometry"/>
                </mxCell>
                <mxCell id="252" value="　名前の変更" style="rounded=0;whiteSpace=wrap;html=1;strokeColor=none;strokeWidth=1;fontSize=16;fontColor=#000000;fillColor=#EDEDED;align=left;labelBackgroundColor=none;" vertex="1" parent="1">
                    <mxGeometry x="1051.02" y="1375.25" width="198.98" height="30" as="geometry"/>
                </mxCell>
                <mxCell id="253" value="　プロジェクト１を削除" style="rounded=0;whiteSpace=wrap;html=1;strokeColor=none;strokeWidth=1;fontSize=16;fontColor=#000000;fillColor=#EDEDED;align=left;labelBackgroundColor=none;" vertex="1" parent="1">
                    <mxGeometry x="1051.02" y="1405.25" width="198.98" height="30" as="geometry"/>
                </mxCell>
                <mxCell id="254" value="" style="triangle;whiteSpace=wrap;html=1;labelBackgroundColor=none;strokeColor=#000000;strokeWidth=1;fontSize=16;fontColor=#000000;fillColor=#000000;rotation=-125;" vertex="1" parent="1">
                    <mxGeometry x="1011.49" y="1357.28" width="20" height="12.97" as="geometry"/>
                </mxCell>
                <mxCell id="255" value="　新規フォルダの作成" style="rounded=0;whiteSpace=wrap;html=1;strokeColor=#B3B3B3;strokeWidth=1;fontSize=16;fontColor=#000000;fillColor=#EDEDED;align=left;labelBackgroundColor=none;" vertex="1" parent="1">
                    <mxGeometry x="1051.02" y="1436.25" width="198.98" height="30" as="geometry"/>
                </mxCell>
                <mxCell id="256" value="　新規タスクの作成" style="rounded=0;whiteSpace=wrap;html=1;strokeColor=none;strokeWidth=1;fontSize=16;fontColor=#000000;fillColor=#EDEDED;align=left;labelBackgroundColor=none;" vertex="1" parent="1">
                    <mxGeometry x="1051.02" y="1466.25" width="198.98" height="30" as="geometry"/>
                </mxCell>
                <mxCell id="257" value="" style="triangle;whiteSpace=wrap;html=1;labelBackgroundColor=none;strokeColor=#000000;strokeWidth=1;fontSize=16;fontColor=#000000;fillColor=#FAFAFA;rotation=-120;" vertex="1" parent="1">
                    <mxGeometry x="1226.0000000000002" y="1460" width="29.07" height="17.5" as="geometry"/>
                </mxCell>
                <mxCell id="258" value="" style="rounded=0;whiteSpace=wrap;html=1;strokeColor=#B3B3B3;strokeWidth=1;fontSize=16;fontColor=#000000;fillColor=none;align=left;labelBackgroundColor=none;" vertex="1" parent="1">
                    <mxGeometry x="1013.21" y="2560" width="130" height="30" as="geometry"/>
                </mxCell>
                <mxCell id="259" value="0%" style="rounded=1;whiteSpace=wrap;html=1;fillColor=#fff2cc;strokeColor=#d6b656;" vertex="1" parent="1">
                    <mxGeometry x="963.21" y="2560" width="40" height="30" as="geometry"/>
                </mxCell>
                <mxCell id="260" value="&lt;font style=&quot;font-size: 18px;&quot;&gt;フォルダ１ (0)&lt;/font&gt;" style="text;html=1;points=[];align=left;verticalAlign=top;spacingTop=-4;fontSize=15;fontFamily=Verdana" vertex="1" parent="1">
                    <mxGeometry x="1013.21" y="2560" width="170" height="30" as="geometry"/>
                </mxCell>
                <mxCell id="261" value="" style="rounded=0;whiteSpace=wrap;html=1;labelBackgroundColor=none;strokeColor=#000000;strokeWidth=1;fontSize=16;fontColor=#000000;fillColor=#EDEDED;" vertex="1" parent="1">
                    <mxGeometry x="1066.73" y="2580" width="244.45" height="150" as="geometry"/>
                </mxCell>
                <mxCell id="262" value="　名前の変更" style="rounded=0;whiteSpace=wrap;html=1;strokeColor=none;strokeWidth=1;fontSize=16;fontColor=#000000;fillColor=#EDEDED;align=left;labelBackgroundColor=none;" vertex="1" parent="1">
                    <mxGeometry x="1099.23" y="2598.75" width="177.5" height="30" as="geometry"/>
                </mxCell>
                <mxCell id="263" value="　新規フォルダの作成" style="rounded=0;whiteSpace=wrap;html=1;strokeColor=none;strokeWidth=1;fontSize=16;fontColor=#000000;fillColor=#EDEDED;align=left;labelBackgroundColor=none;" vertex="1" parent="1">
                    <mxGeometry x="1099.23" y="2658.75" width="191.95" height="30" as="geometry"/>
                </mxCell>
                <mxCell id="264" value="　フォルダ１を削除" style="rounded=0;whiteSpace=wrap;html=1;strokeColor=none;strokeWidth=1;fontSize=16;fontColor=#000000;fillColor=none;align=left;labelBackgroundColor=none;" vertex="1" parent="1">
                    <mxGeometry x="1099.23" y="2628.75" width="177.5" height="30" as="geometry"/>
                </mxCell>
                <mxCell id="265" value="" style="triangle;whiteSpace=wrap;html=1;labelBackgroundColor=none;strokeColor=#000000;strokeWidth=1;fontSize=16;fontColor=#000000;fillColor=#000000;rotation=-125;" vertex="1" parent="1">
                    <mxGeometry x="1061.73" y="2577.0299999999997" width="20" height="12.97" as="geometry"/>
                </mxCell>
                <mxCell id="266" value="　新規タスクの作成" style="rounded=0;whiteSpace=wrap;html=1;strokeColor=#B3B3B3;strokeWidth=1;fontSize=16;fontColor=#000000;fillColor=#EDEDED;align=left;labelBackgroundColor=none;" vertex="1" parent="1">
                    <mxGeometry x="1099.23" y="2688.75" width="177.5" height="30" as="geometry"/>
                </mxCell>
                <mxCell id="267" value="" style="triangle;whiteSpace=wrap;html=1;labelBackgroundColor=none;strokeColor=#000000;strokeWidth=1;fontSize=16;fontColor=#000000;fillColor=#FAFAFA;rotation=-120;" vertex="1" parent="1">
                    <mxGeometry x="1255.0700000000004" y="2712.5" width="29.07" height="17.5" as="geometry"/>
                </mxCell>
                <mxCell id="268" value="" style="rounded=1;whiteSpace=wrap;html=1;arcSize=0;" vertex="1" parent="1">
                    <mxGeometry x="880" y="3140" width="590" height="350" as="geometry"/>
                </mxCell>
                <mxCell id="269" value="" style="rounded=1;whiteSpace=wrap;html=1;arcSize=0;fillColor=#D4E1F5;strokeColor=#36393d;" vertex="1" parent="1">
                    <mxGeometry x="890" y="3180" width="570" height="300" as="geometry"/>
                </mxCell>
                <mxCell id="270" value="×" style="rounded=1;whiteSpace=wrap;html=1;arcSize=1;fillColor=#f8cecc;strokeColor=#b85450;" vertex="1" parent="1">
                    <mxGeometry x="1440" y="3150" width="20" height="20" as="geometry"/>
                </mxCell>
                <mxCell id="271" value="□" style="rounded=1;whiteSpace=wrap;html=1;arcSize=1;fillColor=#d5e8d4;strokeColor=#82b366;" vertex="1" parent="1">
                    <mxGeometry x="1410" y="3150" width="20" height="20" as="geometry"/>
                </mxCell>
                <mxCell id="272" value="‐" style="rounded=1;whiteSpace=wrap;html=1;arcSize=1;fillColor=#fff2cc;strokeColor=#d6b656;" vertex="1" parent="1">
                    <mxGeometry x="1380" y="3150" width="20" height="20" as="geometry"/>
                </mxCell>
                <mxCell id="273" value="&lt;span style=&quot;font-size: 18px;&quot;&gt;タスクリスト&lt;/span&gt;" style="text;html=1;points=[];align=left;verticalAlign=top;spacingTop=-4;fontSize=15;fontFamily=Verdana" vertex="1" parent="1">
                    <mxGeometry x="915" y="3146.25" width="170" height="30" as="geometry"/>
                </mxCell>
                <mxCell id="274" value="" style="whiteSpace=wrap;html=1;aspect=fixed;fillColor=default;fontColor=#CCCCCC;strokeColor=#CCCCCC;" vertex="1" parent="1">
                    <mxGeometry x="890" y="3150.63" width="20" height="20" as="geometry"/>
                </mxCell>
                <mxCell id="275" value="" style="verticalLabelPosition=bottom;verticalAlign=top;html=1;shape=mxgraph.basic.tick;fontSize=16;fillColor=#f8cecc;strokeColor=#b85450;" vertex="1" parent="1">
                    <mxGeometry x="890" y="3149.38" width="20" height="20" as="geometry"/>
                </mxCell>
                <mxCell id="276" value="" style="rounded=1;whiteSpace=wrap;html=1;arcSize=1;strokeColor=none;" vertex="1" parent="1">
                    <mxGeometry x="900" y="3219.94" width="550" height="250.06" as="geometry"/>
                </mxCell>
                <mxCell id="277" value="＋" style="rounded=1;whiteSpace=wrap;html=1;fillColor=#EBEBEB;fontColor=#333333;strokeColor=none;" vertex="1" parent="1">
                    <mxGeometry x="1030.47" y="3190.94" width="30" height="30" as="geometry"/>
                </mxCell>
                <mxCell id="278" value="プロジェクト１" style="rounded=1;whiteSpace=wrap;html=1;strokeColor=none;" vertex="1" parent="1">
                    <mxGeometry x="900" y="3192.19" width="130" height="30" as="geometry"/>
                </mxCell>
                <mxCell id="279" value="プロジェクト１" style="text;html=1;points=[];align=left;verticalAlign=top;spacingTop=-4;fontSize=28;fontFamily=Verdana" vertex="1" parent="1">
                    <mxGeometry x="927.97" y="3233.69" width="305" height="40" as="geometry"/>
                </mxCell>
                <mxCell id="280" value="0%" style="rounded=1;whiteSpace=wrap;html=1;fillColor=#fff2cc;strokeColor=#d6b656;" vertex="1" parent="1">
                    <mxGeometry x="970.47" y="3280.4700000000003" width="40" height="30" as="geometry"/>
                </mxCell>
                <mxCell id="281" value="&lt;font style=&quot;font-size: 18px;&quot;&gt;フォルダ１ (1)&lt;/font&gt;" style="text;html=1;points=[];align=left;verticalAlign=top;spacingTop=-4;fontSize=15;fontFamily=Verdana" vertex="1" parent="1">
                    <mxGeometry x="1020.47" y="3280.4700000000003" width="170" height="30" as="geometry"/>
                </mxCell>
                <mxCell id="282" value="" style="rounded=0;whiteSpace=wrap;html=1;labelBackgroundColor=none;strokeColor=#000000;strokeWidth=1;fontSize=16;fontColor=#000000;fillColor=#FFFFFF;" vertex="1" parent="1">
                    <mxGeometry x="1029.76" y="2970" width="300.47" height="108.75" as="geometry"/>
                </mxCell>
                <mxCell id="283" value="新規タスクの作成" style="text;html=1;points=[];align=left;verticalAlign=top;spacingTop=-4;fontSize=16;fontFamily=Verdana;fontColor=#000000;" vertex="1" parent="1">
                    <mxGeometry x="1050.23" y="2986.25" width="80" height="22.5" as="geometry"/>
                </mxCell>
                <mxCell id="284" value="" style="rounded=1;whiteSpace=wrap;html=1;labelBackgroundColor=none;strokeColor=#B3B3B3;strokeWidth=1;fontSize=14;fontColor=#000000;fillColor=#FFFFFF;" vertex="1" parent="1">
                    <mxGeometry x="1060.7" y="3018.75" width="189.53" height="30" as="geometry"/>
                </mxCell>
                <mxCell id="285" value="&lt;font color=&quot;#ffffff&quot; style=&quot;background-color: rgb(0, 115, 230);&quot;&gt;タスク１&lt;/font&gt;" style="rounded=1;whiteSpace=wrap;html=1;labelBackgroundColor=none;strokeColor=none;strokeWidth=1;fontSize=14;fontColor=#000000;fillColor=none;align=left;" vertex="1" parent="1">
                    <mxGeometry x="1070.23" y="3020" width="100" height="27.5" as="geometry"/>
                </mxCell>
                <mxCell id="286" value="作成" style="rounded=1;whiteSpace=wrap;html=1;labelBackgroundColor=none;strokeColor=#B3B3B3;strokeWidth=1;fontSize=14;fontColor=#000000;fillColor=#F5F5F5;" vertex="1" parent="1">
                    <mxGeometry x="1260.23" y="3018.75" width="50" height="30" as="geometry"/>
                </mxCell>
                <mxCell id="287" value="×" style="rounded=1;whiteSpace=wrap;html=1;arcSize=0;fillColor=#f8cecc;strokeColor=#b85450;" vertex="1" parent="1">
                    <mxGeometry x="1300.23" y="2976.25" width="20" height="20" as="geometry"/>
                </mxCell>
                <mxCell id="288" value="" style="whiteSpace=wrap;html=1;aspect=fixed;fillColor=default;fontColor=#000000;strokeColor=#000000;" vertex="1" parent="1">
                    <mxGeometry x="1025.47" y="3320" width="20" height="20" as="geometry"/>
                </mxCell>
                <mxCell id="289" value="&lt;span style=&quot;font-size: 16px;&quot;&gt;タスク１&lt;/span&gt;" style="text;html=1;points=[];align=left;verticalAlign=top;spacingTop=-4;fontSize=16;fontFamily=Verdana;fontColor=#000000;" vertex="1" parent="1">
                    <mxGeometry x="1055.47" y="3318.75" width="80" height="22.5" as="geometry"/>
                </mxCell>
            </root>
        </mxGraphModel>
    </diagram>
</mxfile>